Premium Rush 2012 TS XviD - MATiNE

Source: 1080 MATiNE CAM Files 
 
http://www.imdb.com/title/tt1547234/

In Manhattan, a bike messenger picks up an envelope 
that attracts the interest of a dirty cop, who pursues 
the cyclist throughout the city.

Video:

ID                                       : 0
Format                                   : MPEG-4 Visual
Format profile                           : Advanced Simple@L5
Format settings, BVOP                    : 2
Format settings, QPel                    : No
Format settings, GMC                     : No warppoints
Format settings, Matrix                  : Default (H.263)
Muxing mode                              : Packed bitstream
Codec ID                                 : XVID
Codec ID/Hint                            : XviD
Duration                                 : 1h 23mn
Bit rate                                 : 2 041 Kbps
Width                                    : 720 pixels
Height                                   : 336 pixels
Display aspect ratio                     : 2.143
Frame rate                               : 25.000 fps
Color space                              : YUV
Chroma subsampling                       : 4:2:0
Bit depth                                : 8 bits
Scan type                                : Progressive
Compression mode                         : Lossy
Bits/(Pixel*Frame)                       : 0.338
Stream size                              : 1.18 GiB (94%)
Writing library                          : XviD 64

Audio:
ID                                       : 1
Format                                   : MPEG Audio
Format version                           : Version 1
Format profile                           : Layer 3
Mode                                     : Joint stereo
Mode extension                           : MS Stereo
Codec ID                                 : 55
Codec ID/Hint                            : MP3
Duration                                 : 1h 23mn
Bit rate mode                            : Constant
Bit rate                                 : 128 Kbps
Channel(s)                               : 2 channels
Sampling rate                            : 44.1 KHz
Compression mode                         : Lossy
Stream size                              : 76.1 MiB (6%)
Alignment                                : Split accross interleaves
Interleave, duration                     : 40 ms (1.00 video frame)
Writing library                          : LAME3.99r
Encoding settings                        : -m j -V 4 -q 2 -lowpass 17 -b 128


Timothy Green TS coming soon as we get audio.... Hint Hint 


Poster:

 
http://i.imgur.com/G8O0i.jpg


Screenshots:

 
http://i.imgur.com/FJo5k.png

 
http://i.imgur.com/qFANH.png

 
http://i.imgur.com/j1OQ9.png


ENJOY!